<?xml version="1.0" standalone="no"?>
<!DOCTYPE svg PUBLIC "-//W3C//DTD SVG 20010904//EN"
 "http://www.w3.org/TR/2001/REC-SVG-20010904/DTD/svg10.dtd">
<svg version="1.0" xmlns="http://www.w3.org/2000/svg"
 width="793.000000pt" height="746.000000pt" viewBox="0 0 793.000000 746.000000"
 preserveAspectRatio="xMidYMid meet">

<g transform="translate(0.000000,746.000000) scale(0.100000,-0.100000)"
fill="#000000" stroke="none">
<path d="M7 7453 c-4 -3 -7 -1680 -7 -3725 l0 -3718 3965 0 3965 0 -2 3722 -3
3723 -3956 3 c-2176 1 -3959 -1 -3962 -5z m7913 -3718 l0 -3715 -3955 0 -3955
0 0 3715 0 3715 3955 0 3955 0 0 -3715z"/>
<path d="M110 3735 l0 -3615 3855 0 3855 0 0 3615 0 3615 -3855 0 -3855 0 0
-3615z m7610 0 l0 -3515 -3755 0 -3755 0 0 3515 0 3515 3755 0 3755 0 0 -3515z"/>
<path d="M310 3735 l0 -3415 3655 0 3655 0 0 3415 0 3415 -3655 0 -3655 0 0
-3415z m7300 0 l0 -3405 -3645 0 -3645 0 0 3405 0 3405 3645 0 3645 0 0 -3405z"/>
<path d="M4663 6323 c-285 -192 -2532 -1759 -2533 -1766 0 -4 6 -10 14 -13 8
-3 565 384 1312 912 715 504 1303 920 1309 925 25 24 -11 3 -102 -58z"/>
<path d="M2760 5265 c-729 -409 -1329 -746 -1334 -748 -6 -2 28 -63 74 -135
92 -145 103 -152 161 -111 28 19 31 20 54 5 13 -9 29 -16 35 -16 15 0 280 153
280 161 0 4 -23 22 -51 39 -41 27 -48 35 -37 45 7 7 488 343 1068 745 958 665
1095 761 1080 759 -3 0 -601 -335 -1330 -744z"/>
<path d="M4540 5698 c-19 -12 -615 -424 -1323 -917 -1002 -696 -1285 -897
-1272 -904 11 -6 25 -3 43 9 39 26 2575 1815 2587 1826 16 14 1 8 -35 -14z"/>
<path d="M2565 4593 c-731 -410 -1332 -747 -1334 -749 -4 -4 55 -103 122 -204
47 -71 65 -77 117 -40 24 17 27 17 60 -1 19 -10 43 -18 53 -19 10 0 16 -3 14
-7 -4 -7 971 -556 2428 -1366 275 -153 524 -292 553 -308 28 -16 52 -27 52
-25 0 2 -36 27 -81 56 -453 290 -1552 1026 -2209 1478 -658 454 -604 413 -583
432 10 10 488 344 1063 743 1055 732 1089 756 1080 756 -3 0 -603 -336 -1335
-746z"/>
<path d="M2052 4507 c-9 -11 -10 -17 -2 -22 15 -9 23 -1 18 21 -3 15 -4 16
-16 1z"/>
<path d="M2515 4181 c-3 -5 30 -34 72 -64 322 -225 1583 -1072 1583 -1063 0
18 -1608 1136 -1634 1136 -8 0 -17 -4 -21 -9z"/>
<path d="M2342 4058 c-57 -39 -99 -75 -95 -78 11 -10 2458 -1376 2543 -1420
14 -7 23 -10 20 -7 -3 3 -291 194 -640 424 -600 395 -1018 676 -1501 1008
-116 80 -214 145 -218 145 -4 0 -53 -32 -109 -72z"/>
<path d="M4682 3933 c45 -72 373 -591 728 -1152 447 -706 650 -1020 663 -1020
9 -1 17 1 17 3 0 9 -1462 2271 -1477 2286 -8 8 23 -44 69 -117z"/>
<path d="M1850 3831 c0 -6 5 -13 10 -16 6 -3 10 1 10 9 0 9 -4 16 -10 16 -5 0
-10 -4 -10 -9z"/>
<path d="M1947 3777 c-18 -13 -51 11 702 -506 409 -280 1341 -903 1341 -897 0
10 -836 598 -1410 992 -634 436 -616 424 -633 411z"/>
<path d="M5218 3235 c110 -170 387 -600 616 -955 l416 -645 -57 -7 c-32 -5
-61 -9 -66 -11 -5 -1 30 -51 77 -110 80 -99 89 -107 121 -107 26 0 39 -6 51
-25 33 -50 42 -49 189 20 l137 65 -34 43 c-19 23 -389 483 -822 1022 -434 539
-797 989 -808 1000 -11 11 70 -119 180 -290z"/>
<path d="M4467 3490 c6 -8 336 -528 733 -1155 397 -627 724 -1142 726 -1144 2
-3 9 0 15 6 7 7 -209 351 -721 1144 -402 624 -739 1141 -748 1149 -14 13 -15
13 -5 0z"/>
<path d="M4895 2962 c4 -7 279 -435 611 -950 332 -514 602 -937 600 -939 -14
-15 -1806 -200 -2843 -295 -259 -23 -471 -44 -469 -45 5 -6 3311 100 3316 106
3 4 30 5 61 3 48 -3 58 -7 68 -28 24 -53 46 -51 190 17 72 34 130 66 129 70
-3 8 -1612 2009 -1651 2053 -10 12 -15 15 -12 8z"/>
<path d="M6125 1690 c-3 -5 -1 -10 4 -10 6 0 11 5 11 10 0 6 -2 10 -4 10 -3 0
-8 -4 -11 -10z"/>
<path d="M4935 1575 c-649 -74 -880 -102 -845 -104 27 -1 746 70 1197 119 152
17 279 30 280 30 2 0 3 5 3 10 0 15 -37 12 -635 -55z"/>
<path d="M5335 1534 c-251 -28 -1272 -131 -1885 -188 -506 -48 -509 -51 -32
-36 174 5 756 24 1292 40 536 17 985 31 997 33 20 2 18 8 -34 90 l-56 87 -41
-1 c-22 -1 -131 -12 -241 -25z"/>
<path d="M4003 1463 c9 -2 25 -2 35 0 9 3 1 5 -18 5 -19 0 -27 -2 -17 -5z"/>
<path d="M5610 1099 c-1216 -133 -1667 -186 -1615 -188 49 -2 1819 181 1883
195 19 4 23 26 4 23 -4 -1 -126 -14 -272 -30z"/>
<path d="M3908 903 c12 -2 30 -2 40 0 9 3 -1 5 -23 4 -22 0 -30 -2 -17 -4z"/>
<path d="M3813 893 c9 -2 25 -2 35 0 9 3 1 5 -18 5 -19 0 -27 -2 -17 -5z"/>
</g>
</svg>
